<svg xmlns="http://www.w3.org/2000/svg" version="1.1" xmlns:xlink="http://www.w3.org/1999/xlink" xmlns:svgjs="http://svgjs.dev/svgjs" width="1500" height="1500" viewBox="0 0 1500 1500"><rect width="1500" height="1500" fill="#ffffff"></rect><g transform="matrix(0.6666666666666666,0,0,0.6666666666666666,250.00000781249992,187.66666666666674)"><svg viewBox="0 0 320 360" data-background-color="#000000" preserveAspectRatio="xMidYMid meet" height="1687" width="1500" xmlns="http://www.w3.org/2000/svg" xmlns:xlink="http://www.w3.org/1999/xlink"><g id="tight-bounds" transform="matrix(1,0,0,1,0.0000025000000505315256,0)"><svg viewBox="0 0 320 360" height="360" width="320"><g><svg></svg></g><g><svg viewBox="0 0 320 360" height="360" width="320"><g><path transform="translate(-19.44751,3.1739) scale(3.53591,3.53591)" d="M67.6 10.7c0.2 0 1.8 0.8 2.7 1.1-0.3 0.1-1-0.2-1.8-0.5 0.2 0 0.6 0.1 1 0.3-0.2-0.2-1.7-0.7-1.9-0.9M52.7 7.6c0.3-0.1 3.8 0.4 5.4 0.5 0.1-0.1-0.2-0.1-0.6-0.2 0.5-0.1 1.5 0.2 2.2 0.3-2.1 0.1-4.4-0.5-6.4-0.3-0.7 0-0.2-0.2-0.6-0.3M49.8 7.6c1.8 0 3.2 0 0.6 0.2-0.3-0.1-0.7-0.1-0.6-0.2M78.1 15.9c0.2 0 1 0.9 1.4 1.2-0.1 0.1-0.9-0.7-1.3-1 0.1 0.1 0 0-0.1-0.2M76.1 14.6c-0.8-0.7-1.1-0.7-1.2-1.1 0.7 0.4 1.2 0.8 1.2 1.1M63.2 8.3c0.1-0.1 0.3 0.1 0.8 0.2-0.6-0.1-0.5 0-0.3 0.2-0.7-0.1-0.9-0.2-0.7-0.4 0.4 0.2 0.5 0.1 0.2 0M34.8 9.5c0-0.1 0.4-0.3 0.7-0.4-0.3 0.2-0.2 0.3 0.3 0.1 0 0.1-0.6 0.3-1 0.5 0.2-0.1 0.4-0.4 0-0.2M65.2 7.3c-0.3 0.1-1.4-0.5-2.5-0.7-0.6-0.2 2.4 0.5 2.5 0.7M6.2 56.7c0.6 2.5 0.2 2.4 0 0M6.3 41.7c0.1-0.4 0.2-1.5 0.3-1.4-0.3 2.4-0.8 3.5-0.9 5.3 0.3-1.6-0.1 0.9-0.2 1.5 0.1 0.8 0.1-0.5 0.3-0.3 0.2 0.3-0.4 4.5-0.2 2.2-0.2 2.1 0 4.4 0.4 5-0.5 3.2 2 10.4 2.5 11.9 0.1 0.1 0-0.5 0.2-0.1 0.2 1.3 1.1 2.2 1.4 3.6 0.3 0.4 1.5 2.6 1.7 3.1 0.4 0.8 0.6 0.7 1 1.5 1.2 2.3 3.1 4.5 4.9 6.6 5.8 6.8 14.7 12.4 24.6 14.4 9.9 2.1 20.3 0.6 28.4-3.3 0.5-0.3 0.4-0.4 1-0.6 2.8-0.9 6.2-3.8 8.1-4.9 0.9-1 3.3-2.7 3.6-3.7 1.7-1.4 3.4-3.7 4.3-5.2 0.5-0.8 0.9-0.8 1.1-1.3-0.1 0 1.6-2.1 2.1-3.3-0.2 0-0.5 0.6-0.5 0 3.6-6.9 5.6-16.2 4.5-22.6 0.2 7.9-1.8 16.7-5.6 22.3-1.7 3.6-5.2 7.5-8.4 10.3-0.5 0.5-1 1.1-1.6 1.5-1.9 1.6-4 2.9-6.2 4.1-5.2 2.9-11 5.4-17.8 5.5 11.7-1 22.2-6.9 28-14.1-4.4 4.3-6.3 6-11.2 8.5-0.4 0.7-3.7 2.1-5.9 2.7 1.3-0.6 4-1.6 4.9-2.4-7.3 3.5-15.4 5.5-23 4.4 2.9 0 7 0.1 10.9-0.6 0.6-0.2 0.9-0.4 1.6-0.5 7.6-1.7 14.9-5.4 20.1-10.6-3 2.7-7.5 5.9-10.4 6.9 2.7-1.5 7.6-4.4 9.2-6.6-3.2 3.2-9.2 6.4-13 7.8-0.6 0.1 0.4-0.4-0.6 0-1.2 0.3-0.7 0.3-1 0.5-4.6 1.3-9.9 2.4-14.3 2-0.8-0.1-1.1-0.3-1.8-0.3-0.8-0.1-1.5-0.1-2.4-0.1-3.5-0.4-7.3-1.8-10.1-3-1.5-0.7-3-1.2-4.5-2.1-1.2-0.7-2.2-1.5-3.2-2.3-3.8-2.8-7-5.6-10-9.6-5.4-7.5-8.2-16.9-7.8-26.2 0.4-9.3 4.1-18.4 10-25.1-0.3 0.3 0.4-0.7 1-1.3 0 0.2-0.1 0.5 0.6-0.2 0.6-0.7-0.2-0.2 0.1-0.6 6.2-6.8 17-12.3 28.1-12.5 0.4-0.3 1.1-0.7 1.9-0.5 0 0.1-0.5 0.1-0.5 0.1 1.1-0.1 2.1-0.1 2.6 0.1 0.1-0.1-0.4-0.2 0-0.2 0.7 0.2 0.9 0 1.3 0.2-0.3 0-0.6 0-0.8 0.1 2.5 0 4.1 0.6 6.6 0.8-1.3-0.3-1.6-0.3-2.6-0.6 1.1 0.2 1.6 0.4 2.1 0.3-0.2 0-0.1-0.3 0.1-0.2 2 0.5 2.2 0.7 4.3 1.4 0.2-0.2-0.9-0.3-1.2-0.6 2 0.7 3.8 1.2 5 2-0.4-0.3-1.6-0.7-2.5-1.1-0.1 0.1 0.3 0.2 0.4 0.4-1-0.5-2.4-1-3.8-1.2 1.2 0.3 2 0.7 2.5 0.9-1.1-0.2-2.5-0.9-4.1-1.2 2.6 0.8 7.5 2.6 10.5 4.2-1.1-0.7-2.4-1.2-3.1-1.6 0.6 0.1 1.3 0.5 1.3 0.3 0.7 0.3 1.6 1 2.1 1.1-0.9-0.6-2.7-1.5-3.3-1.8 7.5 3.4 14.2 9.1 18.5 16.4 0.4 0.7 1 2.3 1.5 2.5-0.1-0.5-0.5-0.8-0.9-1.6 0.2 0 0.2-0.3 0-0.6-0.4-0.5 0 0.4-0.4-0.1-1.8-3.3-4-6.2-7.4-9.4 1.9 1.8 0.5 0.5 0.1-0.1 2.6 2.3 5.6 6.2 6.9 8.2-0.2-0.3-0.3-0.5-0.2-0.5 2.4 4.1 3.9 7.8 5.4 13.1 0.1 0.1 0-0.4 0.2-0.1 1 4.2 1.3 7.7 1.2 10.9 0.8-5.4-1-13.8-4.2-20.4-0.4-0.8-0.4-0.2-0.8-1.1 0-0.3-0.3-0.9-0.5-1.3-4-6.6-8.9-11.3-14.7-15 0.4 0.2 1.2 0.8 1.2 0.7-10.8-7.1-23.3-8.1-33.6-5.9-0.7 0.3-1 0.6-1.8 1 1.5-0.5 2.4-0.6 3.8-0.9 0.3-0.3-1.3 0.1-0.6-0.2 0.1 0.1 1.4-0.2 1.7-0.1 0 0.1-0.4 0.2-0.5 0.3 3.3-0.7 6.7-0.8 9.6-0.6-1.7 0.1-4.8-0.2-5.8 0.3 1-0.1 2.4-0.2 3.3-0.1-1.2 0-3.4 0.1-4.4 0.2-0.1-0.1 1.6-0.3 0.5-0.3-0.5 0.1-1.3 0.1-1.6 0.4-8.6 0.8-17 5.3-22.9 10.6-1.2 1-2.6 2.1-3.5 3.2-2.2 2.5-3.6 5-5.2 7.2 1-2.1 3.2-5.3 5.8-8 2.6-2.7 5.4-5 6.9-6.2 0 0.4 2.4-1.5 3.3-2.1-0.6 0.5 0.4-0.2 0.6-0.1 3.2-1.9 5.8-2.6 8.7-3.7-0.7 0.2-1.3 0.4-1.4 0.3 0.7-0.2 1.1-0.4 1-0.5-2.8 0.8-7.2 2.7-10.7 4.8 6.3-4.3 14.3-6.9 22.2-7 7.9-0.2 15.6 1.8 21.7 5 4.1 1.8 8 5.1 11.1 8.3 0.9 0.8 0.2-0.2 1.5 1.2-0.4-0.2-0.7-0.4-0.2 0.2 0.8 0.9-0.2-0.7 1.1 0.9-0.1 0-0.5-0.5-0.5-0.3 3.5 3.1 6.2 8.7 7.8 12.4-0.4-1.5-1.4-3.6-2.2-5.1 2.4 4.4 3.2 7 4.2 10.9 0.4 0.3-0.2-1.4 0.2-0.6 0.1 0.6 0.2 2.5 0.6 2.8-0.3-1.9-0.8-4.2-1.2-4.6 0.3 0.2-0.5-2.3-1-2.9-0.2-1.6-1.6-4.4-2.8-6.5-4.3-8.4-12-15.3-20.6-19.1 0-0.2-0.5-0.4-0.7-0.6-8.5-3.6-18.7-4.6-28.5-2.3-9.9 2.4-19.2 8.1-25.8 16.3 0.3-1 2.8-2.9 2.9-3.7-2.9 3.1-6 7.2-8.1 11.6-2.2 4.4-3.4 8.9-3.9 12.2" fill="#000000" fill-rule="nonzero" stroke="none" stroke-width="1" stroke-linecap="butt" stroke-linejoin="miter" stroke-miterlimit="10" stroke-dasharray="" stroke-dashoffset="0" font-family="none" font-weight="none" font-size="none" text-anchor="none" style="mix-blend-mode: normal" data-fill-palette-color="tertiary"></path></g><g transform="matrix(1,0,0,1,48,128.36867022797554)"><svg viewBox="0 0 224 103.2626595440489" height="103.2626595440489" width="224"><g><svg viewBox="0 0 224 103.2626595440489" height="103.2626595440489" width="224"><g><svg viewBox="0 0 224 103.2626595440489" height="103.2626595440489" width="224"><g transform="matrix(1,0,0,1,0,77.44748514635023)"><svg viewBox="0 0 224 25.815174397698666" height="25.815174397698666" width="224"><g id="textblocktransform"><svg viewBox="0 0 224 25.815174397698666" height="25.815174397698666" width="224" id="textblock"><g><svg viewBox="0 0 224 25.815174397698666" height="25.815174397698666" width="224"><g transform="matrix(1,0,0,1,0,0)"><svg width="224" viewBox="-0.25 -31.55 278.07 32.05" height="25.815174397698666" data-palette-color="#3d9970"><path d="M20.75-31.05L20.25-23.5 14.45-23.5 14.45 0 5.9 0 5.9-23.5-0.25-23.5 0.25-31.05 20.75-31.05ZM45.65-31.05L45.65 0 37.15 0 37.15-11.75 31.3-11.75 31.3 0 22.7 0 22.7-31.05 31.3-31.05 31.3-18.85 37.15-18.85 37.15-31.05 45.65-31.05ZM67.15-7L66.65 0 49.85 0 49.85-31.05 67.15-31.05 66.65-23.4 58.4-23.4 58.4-18.75 65.55-18.75 65.55-12.15 58.4-12.15 58.4-7 67.15-7ZM101.79-21.2L101.79-21.2Q101.79-18.4 100.94-16.55 100.09-14.7 98.29-13.2L98.29-13.2 102.44 0 93.19 0 90.09-11.2 88.94-11.2 88.94 0 80.54 0 80.54-31.05 92.14-31.05Q97.14-31.05 99.47-28.7 101.79-26.35 101.79-21.2ZM90.24-16.45Q91.54-16.45 92.09-17.2 92.64-17.95 92.64-19.93 92.64-21.9 92.09-22.68 91.54-23.45 90.29-23.45L90.29-23.45 88.94-23.45 88.94-16.45 90.24-16.45ZM107.11-27.8Q109.99-31.55 116.54-31.55 123.09-31.55 125.91-27.85 128.74-24.15 128.74-15.83 128.74-7.5 125.84-3.5 122.94 0.5 116.44 0.5 109.94 0.5 107.09-3.45 104.24-7.4 104.24-15.73 104.24-24.05 107.11-27.8ZM120.14-15.8Q120.14-20.4 119.41-22.03 118.69-23.65 116.46-23.65 114.24-23.65 113.59-22.03 112.94-20.4 112.94-15.85L112.94-15.85 112.94-14.65Q112.94-9.8 113.66-8.28 114.39-6.75 116.61-6.75 118.84-6.75 119.49-8.2 120.14-9.65 120.14-14.2L120.14-14.2 120.14-15.8ZM134.01-27.8Q136.88-31.55 143.44-31.55 149.99-31.55 152.81-27.85 155.63-24.15 155.63-15.83 155.63-7.5 152.74-3.5 149.84 0.5 143.34 0.5 136.84 0.5 133.99-3.45 131.13-7.4 131.13-15.73 131.13-24.05 134.01-27.8ZM147.03-15.8Q147.03-20.4 146.31-22.03 145.59-23.65 143.36-23.65 141.13-23.65 140.49-22.03 139.84-20.4 139.84-15.85L139.84-15.85 139.84-14.65Q139.84-9.8 140.56-8.28 141.28-6.75 143.51-6.75 145.74-6.75 146.38-8.2 147.03-9.65 147.03-14.2L147.03-14.2 147.03-15.8ZM177.58-31.05L177.08-23.5 171.28-23.5 171.28 0 162.73 0 162.73-23.5 156.58-23.5 157.08-31.05 177.58-31.05ZM205.58-16.35L205.58-9.65 190.23-9.65 190.23-16.35 205.58-16.35ZM243.62-31.05L251.52-31.05 248.72 0 238.42 0 235.72-13.75 235.32-13.75 233.07 0 222.72 0 219.47-31.05 227.67-31.05 228.97-14.6 229.47-14.6 231.57-31.05 239.92-31.05 242.22-14.6 242.72-14.6 243.62-31.05ZM277.82-16.2L277.82-16.2Q277.82 0 265.02 0L265.02 0 254.72 0 254.72-31.05 265.22-31.05Q272.07-31.05 274.95-27.23 277.82-23.4 277.82-16.2ZM264.87-7.2Q267.52-7.2 268.3-9.08 269.07-10.95 269.07-15.38 269.07-19.8 268.25-21.65 267.42-23.5 264.72-23.5L264.72-23.5 263.22-23.5 263.22-7.2 264.87-7.2Z" opacity="1" transform="matrix(1,0,0,1,0,0)" fill="#000000" class="wordmark-text-0" data-fill-palette-color="primary" id="text-0"></path></svg></g></svg></g></svg></g></svg></g><g transform="matrix(1,0,0,1,76.32342898238045,0)"><svg viewBox="0 0 71.35314203523912 71.35314203523912" height="71.35314203523912" width="71.35314203523912"><g><svg xmlns="http://www.w3.org/2000/svg" xmlns:xlink="http://www.w3.org/1999/xlink" xml:space="preserve" style="shape-rendering:geometricPrecision;text-rendering:geometricPrecision;image-rendering:optimizeQuality;" viewBox="0 0 6 6" x="0" y="0" fill-rule="evenodd" clip-rule="evenodd" width="71.35314203523912" height="71.35314203523912" class="icon-icon-0" data-fill-palette-color="accent" id="icon-0"><g fill="#3d9970" data-fill-palette-color="accent"><g fill="#3d9970" data-fill-palette-color="accent"><path class="" d="M5.077 2.502c-0.196 0.912-1.016 0.649-1.081 0.626-0.036-0.01-0.059-0.047-0.053-0.084l0.001 0c0.001-0.006 0.161-0.92 1.077-0.63 0.04 0.009 0.065 0.048 0.056 0.088l0 0z" fill="#000000" fill-rule="nonzero" data-fill-palette-color="accent"></path><path class="" d="M4.547 2.836c0.035-0.02 0.047-0.065 0.027-0.101-0.02-0.035-0.065-0.047-0.1-0.027l-0.494 0.285c-0.035 0.02-0.047 0.065-0.028 0.101 0.02 0.035 0.065 0.047 0.101 0.027l0.494-0.285z" fill="#000000" fill-rule="nonzero" data-fill-palette-color="accent"></path><path class="" d="M2.477 1.808c-0.073 0.025-1.122 0.369-1.372-0.794l0 0c-0.009-0.04 0.017-0.079 0.056-0.088 1.164-0.371 1.367 0.791 1.368 0.798l0 0c0.007 0.038-0.016 0.074-0.052 0.084z" fill="#000000" fill-rule="nonzero" data-fill-palette-color="accent"></path><path class="" d="M1.854 1.304c-0.035-0.02-0.08-0.008-0.101 0.027-0.02 0.035-0.008 0.08 0.027 0.101l0.64 0.369c0.035 0.02 0.08 0.008 0.101-0.027 0.02-0.035 0.008-0.08-0.028-0.101l-0.639-0.369z" fill="#000000" fill-rule="nonzero" data-fill-palette-color="accent"></path><path class="" d="M4.345 1.868c-0.161 0.747-0.83 0.536-0.889 0.515-0.036-0.01-0.059-0.047-0.053-0.084l0 0c0.001-0.004 0.132-0.757 0.885-0.519 0.04 0.009 0.065 0.048 0.057 0.088l0 0z" fill="#000000" fill-rule="nonzero" data-fill-palette-color="accent"></path><path class="" d="M3.911 2.146c0.035-0.02 0.047-0.065 0.027-0.1-0.02-0.035-0.065-0.047-0.101-0.028l-0.398 0.23c-0.035 0.02-0.047 0.065-0.027 0.101 0.02 0.035 0.065 0.047 0.101 0.027l0.398-0.23z" fill="#000000" fill-rule="nonzero" data-fill-palette-color="accent"></path><path class="" d="M2.754 3.596c-0.065 0.022-0.871 0.281-1.064-0.617l0 0c-0.009-0.04 0.017-0.079 0.056-0.088 0.902-0.286 1.059 0.614 1.061 0.62l0 0c0.007 0.038-0.016 0.074-0.053 0.085z" fill="#000000" fill-rule="nonzero" data-fill-palette-color="accent"></path><path class="" d="M2.285 3.18c-0.035-0.02-0.08-0.008-0.101 0.027-0.02 0.035-0.008 0.08 0.027 0.101l0.486 0.281c0.035 0.02 0.08 0.008 0.101-0.028 0.02-0.035 0.008-0.08-0.027-0.1l-0.486-0.281z" fill="#000000" fill-rule="nonzero" data-fill-palette-color="accent"></path><path class="" d="M3.174 4.295l-2.069 0c-0.061 0-0.111-0.05-0.111-0.111 0-0.061 0.05-0.111 0.111-0.111l2.062 0c-0.054-0.129-0.138-0.242-0.252-0.329-0.046-0.035-0.096-0.065-0.149-0.089-0.02-0.009-0.042-0.018-0.063-0.024-0.059-0.017-0.093-0.079-0.075-0.137 0.017-0.059 0.079-0.093 0.137-0.076 0.029 0.008 0.06 0.021 0.087 0.034 0.068 0.031 0.134 0.07 0.193 0.115 0.065 0.049 0.123 0.104 0.173 0.165-0.011-0.305-0.047-0.613-0.127-0.9-0.112-0.405-0.316-0.783-0.69-0.999-0.053-0.03-0.071-0.098-0.04-0.151 0.03-0.053 0.098-0.071 0.151-0.041 0.314 0.181 0.526 0.456 0.666 0.774 0.011-0.012 0.021-0.024 0.033-0.035 0.062-0.064 0.132-0.119 0.21-0.164 0.053-0.03 0.121-0.012 0.151 0.041 0.03 0.053 0.012 0.121-0.041 0.151-0.06 0.034-0.113 0.077-0.161 0.127-0.037 0.038-0.07 0.08-0.099 0.124 0.012 0.038 0.023 0.076 0.034 0.114 0.068 0.245 0.106 0.504 0.124 0.763 0.009-0.015 0.017-0.031 0.027-0.046 0.126-0.212 0.295-0.383 0.496-0.524 0.05-0.035 0.119-0.023 0.155 0.027 0.035 0.05 0.023 0.119-0.027 0.155-0.175 0.123-0.324 0.272-0.434 0.456-0.087 0.146-0.145 0.305-0.182 0.469l2.258 0c0.061 0 0.111 0.05 0.111 0.111 0 0.061-0.05 0.111-0.111 0.111l-1.95 0c0.007 0.003 0.014 0.007 0.02 0.012 0.049 0.036 0.06 0.105 0.024 0.155l-0.167 0.229c0.026 0.01 0.054 0.014 0.083 0.008 0.06-0.012 0.118 0.028 0.13 0.088 0.012 0.06-0.028 0.118-0.087 0.13-0.053 0.01-0.105 0.009-0.156-0.004 0.01 0.014 0.022 0.028 0.035 0.04 0.005-0.001 0.011-0.003 0.016-0.004 0.105-0.022 0.223-0.001 0.323 0.032 0.051 0.017 0.097 0.037 0.143 0.061 0.001 0.001 0.002 0.001 0.004 0.002 0.01 0.005 0.02 0.01 0.03 0.016 0.025 0.013 0.051 0.028 0.077 0.036 0.032 0.009 0.06 0.007 0.092-0.003 0.055-0.016 0.114-0.053 0.162-0.085 0.051-0.034 0.12-0.021 0.153 0.03 0.034 0.051 0.021 0.119-0.029 0.153-0.072 0.049-0.156 0.099-0.24 0.124-0.03 0.009-0.06 0.014-0.09 0.015 0.026 0.034 0.056 0.065 0.089 0.093 0.006 0.004 0.012 0.009 0.017 0.014 0.076 0.061 0.166 0.105 0.261 0.134 0.058 0.018 0.091 0.08 0.073 0.139-0.018 0.058-0.08 0.091-0.139 0.073-0.061-0.019-0.12-0.043-0.176-0.072 0.016 0.033 0.035 0.066 0.052 0.096 0.031 0.053 0.013 0.121-0.039 0.151-0.053 0.031-0.121 0.013-0.152-0.039-0.061-0.105-0.131-0.256-0.098-0.382-0.037-0.038-0.071-0.081-0.101-0.127-0.035-0.054-0.064-0.113-0.084-0.173-0.002-0.006-0.004-0.012-0.005-0.018-0.022-0.01-0.044-0.019-0.068-0.027-0.026-0.008-0.054-0.017-0.084-0.023 0.027 0.068 0.034 0.144 0.023 0.224-0.01 0.072-0.038 0.161-0.074 0.225-0.03 0.053-0.098 0.072-0.151 0.043-0.053-0.03-0.072-0.098-0.042-0.151 0.022-0.038 0.039-0.089 0.046-0.133 0.014-0.082-0.003-0.156-0.073-0.207-0.001-0.001-0.002-0.001-0.002-0.001-0.035-0.025-0.067-0.054-0.096-0.085 0.002 0.006 0.005 0.012 0.007 0.018 0.033 0.102 0.009 0.193-0.047 0.272 0.044 0.096 0.037 0.202-0.005 0.307-0.025 0.063-0.069 0.137-0.115 0.189-0.04 0.046-0.111 0.05-0.156 0.009-0.046-0.04-0.05-0.111-0.01-0.156 0.037-0.042 0.076-0.108 0.089-0.162 0.002-0.007 0.003-0.014 0.003-0.021-0.033 0.019-0.068 0.037-0.102 0.052-0.056 0.025-0.122 0-0.147-0.055-0.025-0.056 0-0.122 0.055-0.147 0.036-0.016 0.071-0.034 0.104-0.055 0.025-0.015 0.049-0.033 0.07-0.052 0.043-0.041 0.06-0.086 0.033-0.142-0.014-0.029-0.044-0.063-0.071-0.082-0.015-0.011-0.028-0.025-0.036-0.041l-0.006 0.001-0.004-0.031c0-0.002-0.001-0.004-0.001-0.006l-0.005-0.036 0 0-0.008-0.058c-0.002 0.004-0.005 0.009-0.008 0.012-0.069 0.117-0.188 0.185-0.316 0.223-0.008 0.031-0.012 0.066-0.012 0.093-0.003 0.125 0.044 0.243 0.117 0.343 0.036 0.049 0.025 0.119-0.024 0.154-0.049 0.036-0.119 0.025-0.155-0.024-0.105-0.143-0.165-0.31-0.158-0.489 0-0.003 0-0.006 0-0.009-0.071 0.043-0.126 0.111-0.167 0.181-0.004 0.011-0.01 0.021-0.017 0.03-0.044 0.082-0.078 0.172-0.103 0.261-0.013 0.047-0.025 0.096-0.033 0.144-0.01 0.06-0.066 0.102-0.127 0.092-0.06-0.01-0.102-0.066-0.092-0.127 0.011-0.067 0.03-0.139 0.05-0.204 0.008-0.027 0.017-0.053 0.027-0.08-0.029 0.012-0.057 0.027-0.08 0.046-0.041 0.033-0.059 0.067-0.077 0.115-0.014 0.036-0.026 0.066-0.057 0.092-0.046 0.04-0.117 0.034-0.156-0.012-0.037-0.043-0.035-0.106 0.002-0.147 0.001-0.005 0.002-0.009 0.004-0.014 0.031-0.08 0.064-0.141 0.131-0.199 0.098-0.085 0.231-0.123 0.359-0.14 0.011-0.017 0.022-0.033 0.034-0.049 0.094-0.128 0.219-0.224 0.379-0.249 0.013-0.002 0.026-0.004 0.041-0.008 0.004-0.001 0.008-0.002 0.012-0.002 0.035-0.008 0.072-0.019 0.105-0.034-0.128-0.007-0.257-0.048-0.369-0.097-0.056-0.024-0.082-0.089-0.059-0.145 0.024-0.056 0.089-0.082 0.145-0.058 0.125 0.053 0.296 0.106 0.43 0.051 0.088-0.036 0.142-0.111 0.178-0.196 0.017-0.04 0.03-0.081 0.043-0.122 0.001-0.003 0.001-0.005 0.002-0.008 0.002-0.006 0.003-0.011 0.005-0.017z m0.23 0c-0.003 0.011-0.006 0.022-0.009 0.034-0.001 0.005-0.003 0.009-0.004 0.014 0.007 0.018 0.015 0.036 0.022 0.053 0.021 0.048 0.046 0.096 0.075 0.14l0.149-0.205c0.012-0.016 0.028-0.028 0.045-0.036l-0.278 0z" fill="#000000" data-fill-palette-color="accent"></path></g></g><rect class="" width="6.82666" height="6.82666" fill="none"></rect></svg></g></svg></g><g></g></svg></g></svg></g></svg></g></svg></g><defs></defs></svg><rect width="320" height="360" fill="none" stroke="none" visibility="hidden"></rect></g></svg></g></svg>